<?xml version="1.0" encoding="UTF-8"?>
<svg fill="none" viewBox="0 0 357 211" xmlns="http://www.w3.org/2000/svg">
<mask id="a" x="0" y="0" width="357" height="211" style="mask-type:luminance" maskUnits="userSpaceOnUse">
<path d="M356.51 0H0V210.329H356.51V0Z" fill="#fff"/>
</mask>
<g mask="url(#a)">
<path d="m292.17 132.7s-4.012 5.158-6.343 7.479c-9.061 8.898-21.489 14.444-35.34 14.444-6.991 0-13.592-1.419-19.677-3.998-3.106-1.29-5.955-2.837-8.673-4.771-0.13 0-0.13-0.129-0.259-0.129-5.308-3.869-9.579-8.512-13.204-13.541-2.071-2.837-4.013-5.674-5.955-8.511-0.647-0.903-1.294-1.935-1.941-2.837-1.813-2.579-3.625-5.288-5.308-7.867l-3.237-4.771c-0.647-1.032-1.423-2.063-2.071-3.095l-33.657 49.52c6.99 14.314 23.819 29.144 23.819 29.144 8.544 7.608 18.512 13.798 29.127 18.312 8.285 3.482 17.217 5.932 26.408 7.221 1.424 0.258 2.848 0.387 4.272 0.516l52.039-77.116z" fill="#FF9603"/>
<path d="m356.51 105.23c-0.258 58.031-47.638 105.23-105.89 105.23-3.495 0-6.861-0.129-10.356-0.516l103.69-153.97c3.236 5.9318 5.955 12.38 7.896 18.956 2.978 9.4138 4.66 19.73 4.66 30.305z" fill="#FFC700"/>
<path d="m122.72 105.1-0.259 0.258 33.658-50.164-33.399 49.906z" fill="#9B00FF"/>
<path d="m208.8 78.148 20.971-31.465 30.81-46.167c-3.366-0.25791-6.602-0.51583-10.098-0.51583-4.918 0-9.838 0.38687-14.627 1.0317-21.23 2.966-40.39 12.122-55.665 25.533 0 0-0.647 0.6449-1.812 1.6765-1.553 1.4185-2.977 2.8371-4.531 4.3846-4.401 4.5135-10.226 11.09-14.628 17.925l-3.107 4.7717-33.657 50.164-3.107 4.642c-0.647 1.032-1.424 2.064-2.071 3.095l-1.424 2.064c-1.165 1.805-2.589 3.739-3.884 5.674l-45.567 67.445c6.3431 1.418 12.945 2.321 19.677 2.321 3.8834 0 7.8966-0.258 11.909-0.774 16.829-2.321 32.493-9.543 45.179-20.762 0 0 0.518-0.516 1.554-1.419 1.294-1.16 2.459-2.321 3.624-3.611 2.46-2.579 5.566-5.803 8.285-9.413l40.13-59.321 4.142-5.9323c0.648-0.9023 1.295-1.934 1.942-2.8368 1.942-2.8374 3.884-5.6742 5.955-8.5115z" fill="#FF0029"/>
<path d="m111.85 121.22c-0.647 0.902-1.295 1.676-1.813 2.321-2.2 2.579-4.142 4.514-6.472 6.19-0.518 0.258-0.906 0.645-1.424 0.903-4.6605 2.837-9.9677 4.384-15.534 4.384-16.57 0-30.033-13.411-30.162-29.789 0-5.6739 1.6829-10.961 4.5304-15.604l-11.003 15.732 10.227-14.701-43.496 64.479c11.392 15.603 27.832 27.209 46.991 32.368 0.5177 0.129 1.0354 0.258 1.5536 0.387 0.5177 0.129 0.9061 0.257 1.4238 0.257l45.567-67.444c-0.259 0.258-0.388 0.387-0.388 0.516z" fill="#9B00FF"/>
<path d="m154.44 52.872c-11.651-13.928-26.667-24.631-44.143-29.789-0.648-0.2579-1.424-0.3869-2.071-0.5158-0.648-0.129-1.166-0.258-1.813-0.3869l-46.344 68.605 0.7768-1.0316c1.0354-1.6764 2.2006-3.2239 3.6249-4.6425 2.0712-2.1922 4.5304-4.1267 7.1198-5.6742 4.4011-2.4503 9.4497-3.9978 14.887-3.9978 6.0846 0 12.039 1.8057 17.087 5.2871l0.13 0.1294c0.517 0.3865 0.906 0.7735 1.424 1.0316 2.33 1.8052 4.401 4.2555 6.861 7.3505 1.424 1.8052 2.589 3.7397 4.142 5.9318l1.424 2.0634c1.165 1.8056 2.46 3.4824 3.625 5.2874 0.129 0.129 0.129 0.258 0.259 0.387l1.424 2.192 33.657-49.777c-0.777-0.9029-1.424-1.6769-2.071-2.4504z" fill="#9B00FF"/>
<path d="m339.29 47.843c-17.217-26.178-45.696-44.232-78.577-47.327l-30.81 46.167-20.97 31.466c0.517-0.6452 1.035-1.2898 1.553-1.9345 3.365-4.2555 7.119-8.2533 11.78-11.606 0 0 0.129 0 0.129-0.1288 0 0 0.13 0 0.13-0.1288 0.906-0.6447 1.812-1.1605 2.848-1.8052 7.508-4.3848 16.181-6.964 25.501-6.964 8.415 0 16.311 2.0634 23.173 5.6742 0.129 0 0.258 0.1288 0.388 0.1288 1.295 0.6452 2.459 1.4187 3.624 2.1922 0.13 0.1293 0.26 0.1293 0.518 0.2581 1.165 0.7735 2.201 1.5475 3.366 2.4504 0.13 0.1288 0.388 0.2576 0.518 0.3865 1.035 0.9028 2.071 1.8056 3.107 2.7085 0.129 0.1288 0.259 0.2576 0.517 0.3865 1.036 0.9028 1.942 1.9345 2.848 3.0949 0.13 0.1294 0.26 0.2582 0.389 0.3871 0.906 1.0316 1.812 2.1921 2.589 3.3531 0.13 0.1288 0.259 0.2577 0.259 0.3865 0.777 1.161 1.554 2.4503 2.33 3.6108 0.13 0.1294 0.13 0.2582 0.259 0.387 0.777 1.2899 1.294 2.5792 1.942 3.8685 0 0.1294 0.129 0.2582 0.129 0.387 0.647 1.2899 1.165 2.708 1.554 4.1267 0 0.1288 0.129 0.2582 0.129 0.387 0.518 1.4186 0.777 2.708 1.165 4.2555 0 0.1288 0.129 0.387 0.129 0.5158 0.26 1.4187 0.518 2.8373 0.777 4.2555 0 0.2582 0.13 0.387 0.13 0.6452 0.129 1.4177 0.259 2.7077 0.259 4.1257v0.774 0.516 0.387 0.516c0 1.289-0.13 2.579-0.259 3.869 0 0.387 0 0.774-0.13 1.031-0.777 6.706-2.718 13.154-5.825 18.699l49.58-73.635c-1.812-2.708-3.366-5.2871-5.049-7.8663z" fill="#FF9603"/>
<path d="m60.066 90.786 46.343-68.605c-1.035-0.2579-1.941-0.5158-2.977-0.6448-1.812-0.3868-3.4952-0.6447-5.3074-0.9027-4.0132-0.5158-8.0259-0.7737-11.91-0.7737-47.379-0.129-86.085 38.172-86.215 85.37 0 17.667 5.5664 33.916 14.758 47.585 0.3884 0.516 0.6473 1.032 1.0356 1.548" fill="#00BDFF"/>
<path d="m15.792 154.36c0.2589 0.387 0.5178 0.644 0.7767 0.902l43.496-64.478" fill="#00BDFF"/>
</g>
</svg>
