<?xml version="1.0" encoding="UTF-8"?>
<svg fill="none" viewBox="0 0 925 213" xmlns="http://www.w3.org/2000/svg">
<path d="m156.65 56.58-33.754 50.19v-0.341l-1.543-2.273c-1.315-1.874-2.601-3.777-3.887-5.6801l-1.4-2.0733c-1.515-2.2442-2.858-4.0904-4.144-5.9365-1.955-2.7385-4.25-5.2199-6.831-7.3852l-1.4-1.079c-4.6622-3.1865-10.134-4.9995-15.787-5.2309-5.653-0.2308-11.257 1.1295-16.166 3.9242-2.6847 1.5202-5.1222 3.4358-7.2308 5.681l43.9-62.488c11.301 2.9642 21.873 8.1934 31.066 15.366v-0.1704l4.058 3.522 0.515 0.4545c4.563 4.1593 8.779 8.6809 12.604 13.52z" fill="#9B00FF"/>
<path d="m921.94 147.39c-3.547 1.81-7.447 2.837-11.431 3.011-5.918 0-11.605-3.835-17.149-9.203-3.947-3.778-8.031-8.521-11.92-13.151 5.156-0.745 10.175-2.237 14.889-4.431 4.042-1.842 7.679-4.446 10.722-7.669 6.028-5.993 11.688-16.048 11.688-31.528 0-27.068-18.494-45.446-47.674-45.446h-60.561v135.37h29.179v-44.48h7.348c12.004 12.469 26.294 36.925 45.299 44.225l1.455 0.482 0.689 0.227 1.288 0.37 1.855 0.398h0.914l1.404 0.198h0.825 2.118 5.544l1.598-0.227 0.915-0.142 2.002-0.369c4.142-0.765 8.141-2.154 11.862-4.119l-2.859-23.518zm-82.257-44.594v-36.754h30.152c2.46-0.1178 4.92 0.2771 7.216 1.1589 2.297 0.8818 4.384 2.2316 6.123 3.9621 1.745 1.7305 3.101 3.8038 3.989 6.0869 0.888 2.2826 1.283 4.7245 1.167 7.1691 0.116 2.4445-0.279 4.887-1.167 7.1696-0.888 2.2831-2.244 4.3564-3.989 6.0869-1.739 1.7305-3.826 3.0795-6.123 3.9625-2.296 0.881-4.756 1.276-7.216 1.158h-30.152z" fill="#1A1A1A"/>
<path d="m412.58 38.97v135.37h29.181v-49.309h55.445v-27.153h-55.445v-31.812h71.022v-27.182h-100.2v0.0852z" fill="#1A1A1A"/>
<path d="m758.95 38.885-35.612 99.612h-0.767l-35.613-99.612h-31.15l0.026 0.0852h-0.026l50.586 135.37h33.095l50.586-135.37h-0.027l0.027-0.0852h-31.125z" fill="#1A1A1A"/>
<path d="m648.52 147.42c-3.548 1.811-7.448 2.838-11.432 3.011-5.917 0-11.63-3.834-17.149-9.203-3.942-3.777-8.004-8.521-11.888-13.151 5.15-0.75 10.17-2.243 14.889-4.43 4.026-1.849 7.658-4.453 10.69-7.669 6.028-5.994 11.689-16.048 11.689-31.529 0-27.068-18.49-45.446-47.674-45.446h-60.53v135.34h29.179v-44.48h7.374c11.973 12.469 26.263 36.925 45.273 44.225h0.141l1.43 0.482 0.683 0.227 1.288 0.37 1.855 0.398h0.92l1.398 0.198h0.83 2.145 5.513l1.629-0.227 0.915-0.142 1.97-0.369c4.184-0.75 8.226-2.139 11.978-4.119l-3.032-23.518-0.084 0.028zm-82.226-44.622v-36.754h30.179c2.459-0.1131 4.914 0.2845 7.21 1.1678 2.297 0.8839 4.378 2.2332 6.123 3.9632 1.74 1.7294 3.096 3.8006 3.984 6.0816 0.888 2.2811 1.293 4.7214 1.177 7.1644 0.116 2.4445-0.278 4.887-1.166 7.1696-0.889 2.2831-2.245 4.3564-3.99 6.0869-1.739 1.7305-3.826 3.0795-6.122 3.9625-2.297 0.881-4.757 1.276-7.216 1.158h-30.179z" fill="#1A1A1A"/>
<mask id="a" x="0" y="1" width="357" height="211" style="mask-type:luminance" maskUnits="userSpaceOnUse">
<path d="M356.51 1.33543H0V211.665H356.51V1.33543Z" fill="#fff"/>
</mask>
<g mask="url(#a)">
<path d="m292.17 134.03s-4.012 5.158-6.343 7.48c-9.061 8.898-21.489 14.443-35.34 14.443-6.991 0-13.592-1.418-19.677-3.998-3.106-1.289-5.955-2.837-8.673-4.771-0.13 0-0.13-0.129-0.259-0.129-5.308-3.869-9.579-8.511-13.204-13.541-2.071-2.837-4.013-5.673-5.955-8.511-0.647-0.903-1.294-1.934-1.941-2.837-1.813-2.579-3.625-5.287-5.308-7.866l-3.237-4.772c-0.647-1.031-1.423-2.063-2.071-3.095l-33.657 49.52c6.99 14.314 23.819 29.144 23.819 29.144 8.544 7.609 18.512 13.799 29.127 18.312 8.285 3.482 17.217 5.932 26.408 7.222 1.424 0.258 2.848 0.387 4.272 0.516l52.039-77.117z" fill="#FF9603"/>
<path d="m356.51 106.56c-0.258 58.03-47.638 105.23-105.89 105.23-3.495 0-6.861-0.128-10.356-0.515l103.69-153.98c3.236 5.9318 5.955 12.38 7.896 18.956 2.978 9.4138 4.66 19.73 4.66 30.306z" fill="#FFC700"/>
<path d="m122.72 106.44-0.259 0.259 33.658-50.165-33.399 49.906z" fill="#9B00FF"/>
<path d="m208.8 79.483 20.971-31.465 30.81-46.167c-3.366-0.25791-6.602-0.51583-10.098-0.51583-4.918 0-9.838 0.38688-14.627 1.0317-21.23 2.966-40.39 12.122-55.665 25.534 0 0-0.647 0.6448-1.812 1.6765-1.553 1.4185-2.977 2.837-4.531 4.3845-4.401 4.5135-10.226 11.09-14.628 17.925l-3.107 4.7717-33.657 50.164-3.107 4.643c-0.647 1.031-1.424 2.063-2.071 3.095l-1.424 2.063c-1.165 1.805-2.589 3.74-3.884 5.674l-45.567 67.445c6.3431 1.418 12.945 2.321 19.677 2.321 3.8834 0 7.8966-0.258 11.909-0.774 16.829-2.321 32.493-9.543 45.179-20.762 0 0 0.518-0.515 1.554-1.418 1.294-1.161 2.459-2.321 3.624-3.611 2.46-2.579 5.566-5.803 8.285-9.414l40.13-59.32 4.142-5.9324c0.648-0.9023 1.295-1.9339 1.942-2.8368 1.942-2.8373 3.884-5.6741 5.955-8.5115z" fill="#FF0029"/>
<path d="m111.85 122.56c-0.647 0.903-1.295 1.677-1.813 2.321-2.2 2.58-4.142 4.514-6.472 6.19-0.518 0.258-0.906 0.645-1.424 0.903-4.6605 2.837-9.9677 4.385-15.534 4.385-16.57 0-30.033-13.412-30.162-29.789 0-5.674 1.6829-10.962 4.5304-15.604l-11.003 15.733 10.227-14.701-43.496 64.478c11.392 15.604 27.832 27.21 46.991 32.368 0.5177 0.129 1.0354 0.258 1.5536 0.387 0.5177 0.129 0.9061 0.258 1.4238 0.258l45.567-67.445c-0.259 0.258-0.388 0.387-0.388 0.516z" fill="#9B00FF"/>
<path d="m154.44 54.208c-11.651-13.928-26.667-24.631-44.143-29.789-0.648-0.2579-1.424-0.3868-2.071-0.5158-0.648-0.1289-1.166-0.2579-1.813-0.3868l-46.344 68.605 0.7768-1.0317c1.0354-1.6763 2.2006-3.2238 3.6249-4.6425 2.0712-2.1921 4.5304-4.1266 7.1198-5.6741 4.4011-2.4504 9.4497-3.9978 14.887-3.9978 6.0846 0 12.039 1.8056 17.087 5.2871l0.13 0.1294c0.517 0.3864 0.906 0.7734 1.424 1.0316 2.33 1.8052 4.401 4.2555 6.861 7.3505 1.424 1.8051 2.589 3.7396 4.142 5.9318l1.424 2.0633c1.165 1.806 2.46 3.482 3.625 5.287 0.129 0.13 0.129 0.258 0.259 0.387l1.424 2.192 33.657-49.777c-0.777-0.9028-1.424-1.6768-2.071-2.4503z" fill="#9B00FF"/>
<path d="m339.29 49.179c-17.217-26.178-45.696-44.232-78.577-47.327l-30.81 46.167-20.97 31.466c0.517-0.6452 1.035-1.2899 1.553-1.9346 3.365-4.2554 7.119-8.2533 11.78-11.606 0 0 0.129 0 0.129-0.1289 0 0 0.13 0 0.13-0.1288 0.906-0.6447 1.812-1.1605 2.848-1.8051 7.508-4.3849 16.181-6.964 25.501-6.964 8.415 0 16.311 2.0633 23.173 5.6741 0.129 0 0.258 0.1288 0.388 0.1288 1.295 0.6452 2.459 1.4187 3.624 2.1922 0.13 0.1294 0.26 0.1294 0.518 0.2582 1.165 0.7735 2.201 1.5475 3.366 2.4503 0.13 0.1288 0.388 0.2577 0.518 0.3865 1.035 0.9028 2.071 1.8057 3.107 2.7085 0.129 0.1288 0.259 0.2577 0.517 0.3865 1.036 0.9028 1.942 1.9345 2.848 3.095 0.13 0.1293 0.26 0.2582 0.389 0.387 0.906 1.0317 1.812 2.1921 2.589 3.3532 0.13 0.1288 0.259 0.2576 0.259 0.3864 0.777 1.1611 1.554 2.4504 2.33 3.6109 0.13 0.1293 0.13 0.2581 0.259 0.387 0.777 1.2898 1.294 2.5791 1.942 3.8684 0 0.1294 0.129 0.2582 0.129 0.387 0.647 1.2899 1.165 2.708 1.554 4.1267 0 0.1288 0.129 0.2582 0.129 0.387 0.518 1.4187 0.777 2.708 1.165 4.2555 0 0.1288 0.129 0.387 0.129 0.5158 0.26 1.4187 0.518 2.8374 0.777 4.256 0 0.258 0.13 0.387 0.13 0.645 0.129 1.418 0.259 2.708 0.259 4.126v0.774 0.516 0.387 0.516c0 1.289-0.13 2.579-0.259 3.868 0 0.387 0 0.774-0.13 1.032-0.777 6.705-2.718 13.153-5.825 18.698l49.58-73.634c-1.812-2.708-3.366-5.2871-5.049-7.8662z" fill="#FF9603"/>
<path d="m60.066 92.121 46.343-68.605c-1.035-0.258-1.941-0.5159-2.977-0.6449-1.812-0.3868-3.4952-0.6447-5.3074-0.9026-4.0132-0.5159-8.0259-0.7738-11.91-0.7738-47.379-0.129-86.085 38.172-86.215 85.37 0 17.667 5.5664 33.915 14.758 47.585 0.3884 0.515 0.6473 1.031 1.0356 1.547" fill="#00BDFF"/>
<path d="m15.792 155.7c0.2589 0.387 0.5178 0.645 0.7767 0.903l43.496-64.479" fill="#00BDFF"/>
</g>
</svg>
